<svg id="Layer_1" data-name="Layer 1" xmlns="http://www.w3.org/2000/svg" width="4.9in" height="4.8in" viewBox="0 0 351.3 346"><title>behance-hover</title><path d="M149.9,187.6c-4-1.6-8.3-1.9-12.6-1.9-8.5-.2-17.1,0-25.6-.1-1.5,0-2,.4-2,2,.1,5.1,0,10.1,0,15.2s.1,10.4,0,15.6c0,1.3.5,1.9,1.8,1.8s5.1.1,7.6,0c8.1-.1,16.2.4,24.3-.4,5.3-.5,10-2.3,13-7.1a21.8,21.8,0,0,0,2.3-14.6A13.2,13.2,0,0,0,149.9,187.6Z" transform="translate(-4.3 -6.9)" fill="none" stroke="#fff" stroke-miterlimit="10" stroke-width="7"/><path d="M109.7,161.3c0,1.6.5,2.1,2,2h27.9a24.9,24.9,0,0,0,11-2.8,9.8,9.8,0,0,0,4.8-5.9,23.3,23.3,0,0,0,.7-7.9,10.6,10.6,0,0,0-8.4-10.3,45.6,45.6,0,0,0-11.1-1.4H111.8c-1.5,0-2.1.4-2.1,2C109.8,145.1,109.8,153.2,109.7,161.3Z" transform="translate(-4.3 -6.9)" fill="none" stroke="#fff" stroke-miterlimit="10" stroke-width="7"/><path d="M292.3,51.5,180,10.6,67.7,51.5,8,154.9,28.8,272.6l91.5,76.8H239.7l91.5-76.8L352,154.9ZM217,119.1c-.1-1.6.5-2.1,2.1-2h49.2c2.1,0,2.2.1,2.2,2.2s.1,5.9,0,8.9-.1,2.5-2.5,2.5H219.1c-1.5.1-2.2-.4-2.1-2Q217.2,123.9,217,119.1Zm-31,94.5a39.5,39.5,0,0,1-9.2,17.2c-6.4,6.9-14.5,10.4-23.7,11.8a116.7,116.7,0,0,1-15.6,1H81.7c-2.7,0-2.7,0-2.7-2.7V114.4c0-2.8,0-2.8,2.7-2.8,21.6,0,43.3-.2,64.9.1a41.4,41.4,0,0,1,22.3,6.5,29.2,29.2,0,0,1,13.6,21.5,40.8,40.8,0,0,1-.1,13.5,25.2,25.2,0,0,1-12.7,18.1c-.6.4-1.8.6-1.7,1.5s1.2.7,1.9,1.1c9,4.2,14.4,11.4,16.4,21.1A41.7,41.7,0,0,1,186,213.6Zm102.5-14.4h-64c-2.2,0-2.3.1-2.1,2.2.5,4.5,1.6,8.8,4.3,12.5a20.3,20.3,0,0,0,14.5,8c4.7.5,9.4.4,13.9-1.6a16.2,16.2,0,0,0,7.7-6.9,3.4,3.4,0,0,1,3.3-2h21.2c2.3,0,2.5.1,1.9,2.5a28.7,28.7,0,0,1-5.6,11,41.5,41.5,0,0,1-16.7,13.5,50.1,50.1,0,0,1-16.2,4,56.3,56.3,0,0,1-18.3-1.1c-10.5-2.6-19.7-7.5-26.6-16.2-4.9-6.2-7-13.6-8.2-21.4a75,75,0,0,1-.5-15.7c.6-10.2,2.8-19.9,9.1-28.3s17.5-15.3,29.7-17a57.7,57.7,0,0,1,23.4,1.4,39.8,39.8,0,0,1,24.1,18,47.7,47.7,0,0,1,7.1,22.7c.2,4,.2,8,.3,12C290.8,199.2,290.8,199.2,288.5,199.2Z" transform="translate(-4.3 -6.9)" fill="none" stroke="#fff" stroke-miterlimit="10" stroke-width="7"/><path d="M257.8,167.7a21.4,21.4,0,0,0-13.9-4.6c-3.6.1-7.2.4-10.5,2.3-5.8,3.2-8.5,8.6-10,14.7-.5,2.2-.3,2.3,1.8,2.3h37.5c1,0,2.1,0,1.8-1.5C263.8,175.8,262.1,171.1,257.8,167.7Z" transform="translate(-4.3 -6.9)" fill="none" stroke="#fff" stroke-miterlimit="10" stroke-width="7"/></svg>