<svg xmlns="http://www.w3.org/2000/svg" xmlns:xlink="http://www.w3.org/1999/xlink" viewBox="0 0 360 360"><defs><clipPath id="clip-path"><polygon points="180 4.8 64 47 2.3 153.9 23.7 275.5 118.3 354.8 241.7 354.8 336.3 275.5 357.7 153.9 296 47 180 4.8" fill="none"/></clipPath><clipPath id="clip-path-2"><polygon points="180 4.8 64 47 2.3 153.9 23.7 275.5 118.3 354.8 241.7 354.8 336.3 275.5 357.7 153.9 296 47 180 4.8" fill="#fff" clip-path="url(#clip-path)"/></clipPath></defs><title>cheo-hover</title><g style="isolation:isolate"><g id="Layer_1" data-name="Layer 1"><polygon points="180 4.8 64 47 2.3 153.9 23.7 275.5 118.3 354.8 241.7 354.8 336.3 275.5 357.7 153.9 296 47 180 4.8" fill="#fff"/><g clip-path="url(#clip-path-2)"><polygon points="303.3 126.4 314.2 202 283.8 197 303.3 126.4" fill="#858585"/><polygon points="314.2 202 282.5 271.5 283.8 197 283.8 197 314.2 202" fill="#c1c1c1"/><polygon points="303.3 126.4 303.3 126.4 283.8 197 275.3 138.6 265.7 108.1 303.3 126.4" fill="#4c4c4c"/><polygon points="253.3 68.7 303.3 126.4 265.7 108.1 265.7 108.1 253.3 68.7" fill="#858585"/><polygon points="283.8 197 282.5 271.5 259.2 250.8 283.8 197" fill="#858585"/><polygon points="282.5 271.5 218.2 312.8 241.3 277.8 282.5 271.5"/><polygon points="282.5 271.5 241.3 277.8 259.2 250.8 282.5 271.5" fill="#858585"/><polygon points="265.7 108.1 275.3 138.6 236.7 94 265.7 108.1 265.7 108.1"/><polygon points="253.3 68.7 265.7 108.1 236.7 94 236.7 93.9 253.3 68.7" fill="#4c4c4c"/><polygon points="259.2 250.8 241.3 277.8 209.5 282.7 259.2 250.8" fill="#4c4c4c"/><polygon points="253.3 68.7 236.7 93.9 180 77.3 253.3 68.7" fill="#858585"/><polygon points="253.3 68.7 180 77.3 180 47.2 253.3 68.7" fill="#858585"/><polygon points="241.3 277.8 218.2 312.8 172.2 299.3 209.5 282.7 241.3 277.8" fill="#858585"/><polygon points="218.2 312.8 141.8 312.8 172.2 299.3 218.2 312.8" fill="#858585"/><polygon points="209.5 282.7 172.2 299.3 123.4 285 100.8 250.8 150.5 282.7 209.5 282.7" fill="#c1c1c1"/><polygon points="180 47.2 180 77.3 123.3 93.9 180 47.2" fill="#4c4c4c"/><polygon points="180 47.2 123.3 93.9 106.7 68.7 180 47.2"/><polygon points="123.4 285 172.2 299.3 141.8 312.8 123.4 285"/><polygon points="123.4 285 141.8 312.8 77.5 271.5 123.4 285" fill="#858585"/><polygon points="123.4 285 77.5 271.5 100.8 250.8 123.4 285" fill="#858585"/><polygon points="106.7 68.7 123.3 93.9 56.7 126.4 106.7 68.7" fill="#c1c1c1"/><polygon points="123.3 93.9 84.7 138.6 76.3 197 56.7 126.4 56.7 126.4 123.3 93.9" fill="#4c4c4c"/><polygon points="76.3 197 100.8 250.8 77.5 271.5 76.3 197" fill="#c1c1c1"/><polygon points="76.3 197 77.5 271.5 45.8 202 76.3 197 76.3 197" fill="#4c4c4c"/><polygon points="56.7 126.4 76.3 197 45.8 202 56.7 126.4" fill="#858585"/><polygon points="229.4 103.6 191.2 140.6 199.3 118.6 229.4 103.6" fill="#4c4c4c"/><polygon points="229.4 103.6 199.3 118.6 204.9 103.6 229.4 103.6" fill="#858585"/><polygon points="227.9 256.4 203.4 256.4 210.3 247.9 227.9 256.4"/><polygon points="227.9 256.4 210.3 247.9 179 232.8 191.3 220.9 227.9 256.4" fill="#c1c1c1"/><polygon points="220.4 169 220.4 192.7 205.1 177.6 220.4 169"/><polygon points="191.2 140.6 220.4 169 205.1 177.6 191.2 140.6" fill="#c1c1c1"/><polygon points="205.1 177.6 220.4 192.7 179 209.1 192.6 196 197.6 191.1 206.5 182.4 205.1 177.6" fill="#858585"/><polygon points="220.4 192.7 191.3 220.9 179 209.1 220.4 192.7" fill="#c1c1c1"/><polygon points="210.3 247.9 203.4 256.4 194.8 248 189.8 243.1 179 232.8 210.3 247.9" fill="#4c4c4c"/><polygon points="205.1 177.6 206.5 182.4 170.8 177.6 205.1 177.6" fill="#4c4c4c"/><polygon points="206.5 182.4 151.6 182.4 170.8 177.6 206.5 182.4"/><polygon points="191.2 140.6 205.1 177.6 196.1 168.9 191.1 164.1 191.2 140.6" fill="#4c4c4c"/><polygon points="204.9 103.6 199.3 118.6 179 128.8 190.5 117.6 162.6 112.7 195.5 112.7 204.9 103.6"/><polygon points="199.3 118.6 191.2 140.6 179 128.8 199.3 118.6" fill="#c1c1c1"/><polygon points="197.6 191.1 192.6 196 177.4 196 197.6 191.1" fill="#c1c1c1"/><polygon points="197.6 191.1 177.4 196 160.5 191.1 197.6 191.1" fill="#4c4c4c"/><polygon points="196.1 168.9 162 168.9 179 164.1 196.1 168.9" fill="#4c4c4c"/><polygon points="196.1 168.9 179 164.1 191.1 164.1 196.1 168.9"/><polygon points="194.8 248 163.3 248 189.8 243.1 194.8 248" fill="#c1c1c1"/><polygon points="179 209.1 191.3 220.9 179 232.8 168.3 243.1 163.3 248 154.7 256.4 161 238 161 238 166.8 220.9 151.6 182.4 160.5 191.1 165.5 196 179 209.1" fill="#858585"/><polygon points="179 128.8 191.2 140.6 166.9 140.6 179 128.8"/><polygon points="191.2 140.6 191.1 164.1 179 152.4 167 164.1 140.7 166.1 191.2 140.6" fill="#858585"/><polygon points="191.2 140.6 140.7 166.1 166.9 140.6 191.2 140.6" fill="#4c4c4c"/><polygon points="190.5 117.6 167.6 117.6 179 128.8 128.7 103.6 153.2 103.6 162.6 112.7 190.5 117.6" fill="#4c4c4c"/><polygon points="189.8 243.1 163.3 248 168.3 243.1 189.8 243.1"/><polygon points="179 128.8 166.9 140.6 128.7 103.6 179 128.8" fill="#858585"/><polygon points="179 164.1 162 168.9 153 177.6 170.8 177.6 151.6 182.4 140.7 166.1 167 164.1 179 164.1" fill="#c1c1c1"/><polygon points="177.4 196 165.5 196 160.5 191.1 177.4 196"/><polygon points="151.6 182.4 166.8 220.9 140.7 195.6 151.6 182.4" fill="#c1c1c1"/><polygon points="166.8 220.9 161 238 161 238 130.2 256.4 166.8 220.9"/><polygon points="130.2 256.4 161 238 154.7 256.4 130.2 256.4" fill="#4c4c4c"/><polygon points="140.7 166.1 151.6 182.4 140.7 195.6 140.7 166.1" fill="#4c4c4c"/><polygon points="180 4.8 64 47 2.3 153.9 23.7 275.5 118.3 354.8 241.7 354.8 336.3 275.5 357.7 153.9 296 47 180 4.8" fill="#ffcc0d" style="mix-blend-mode:multiply"/></g></g></g></svg>