<svg id="Layer_1" data-name="Layer 1" xmlns="http://www.w3.org/2000/svg" viewBox="0 0 237.1 317.3"><title>logo-2-white</title><path d="M107,137a81.5,81.5,0,0,1,142,0h11.3a91.5,91.5,0,0,0-164.6,0Z" transform="translate(-62.8 -19.8)" fill="#fff"/><path d="M247.9,219a81.6,81.6,0,0,1-139.8,0H96.7a91.5,91.5,0,0,0,162.6,0Z" transform="translate(-62.8 -19.8)" fill="#fff"/><path d="M65.1,146.5h8v49.6a4,4,0,0,0,4.3,3.9,3.9,3.9,0,0,0,4.2-4V154.6s.1-5.9,6.8-8.7,11,3.3,11.9,5.3,7.9,17.2,7.9,17.2l9.2-18.4a10.5,10.5,0,0,1,8.9-4.5c6.2,0,9.2,6,9.2,9.7v41.2a4.1,4.1,0,0,0,8.2,0V160.5s.2-5.9,4.2-9.9a13.6,13.6,0,0,1,10.5-4H170s19.9.1,19.9,16.1-18.7,18.2-18.7,18.2l14.9,19.2a.4.4,0,0,0,.4.2c.4,0,.5-.5.5-.5L205,152a11.5,11.5,0,0,1,20.6,0l18.7,47.5s.8,1.3,1.8.7a2.1,2.1,0,0,0,.8-2V151.5s.5-5,5.4-6.1a6.5,6.5,0,0,1,7.5,3.4l30.4,46.7a.9.9,0,0,0,1,.4c.6-.3.6-1.6.6-1.6V146.5h8v55.7a6.9,6.9,0,0,1-12.5,3.6L256.9,159s-.6-.9-1.3-.6-.7,2.9-.7,2.9v38.5a9.6,9.6,0,0,1-7.2,8.4c-6.9,1.8-10.4-4.3-11.4-7s-17.8-45.6-17.8-45.6a3.5,3.5,0,0,0-3.2-2.1,3.3,3.3,0,0,0-3.1,2.2l-18.1,47.8s-2.3,4.8-7.5,4.8a8.8,8.8,0,0,1-7.4-4.1l-15.9-20.1a7.5,7.5,0,0,1-.4-7,6.4,6.4,0,0,1,5.6-3.9c1.2-.2,11.6-1.2,13.2-7.4s-3.2-8.8-3.2-8.8a20.3,20.3,0,0,0-9.7-2.5H158.5a7.1,7.1,0,0,0-4.6,1.7c-1.9,1.8-2.2,3.8-2.2,7.4v32.7s-.7,11.9-12,11.9-12.2-11.5-12.2-11.5v-41a2.1,2.1,0,0,0-1.1-2c-1.4-.7-2.7,1.6-2.7,1.6l-8.5,17.1a8.2,8.2,0,0,1-6.8,4,8.6,8.6,0,0,1-7-3.8l-8-17.3a3,3,0,0,0-1.2-1.5,1.8,1.8,0,0,0-2.1.4c-.4.5-.5,1-.5,2.3v40s.2,3.9-3.7,8A11.3,11.3,0,0,1,77,208a13.3,13.3,0,0,1-8.4-3.6,12.7,12.7,0,0,1-3.5-9Z" transform="translate(-62.8 -19.8)" fill="#fff"/><path d="M208.6,93.9S278.7,11,297,20.5s-61.4,121.1-61.4,121.1,36.3-67.5,27.9-74.2S214.3,98,214.3,98Z" transform="translate(-62.8 -19.8)" fill="#fff"/><path d="M109.6,230.1S50.6,321.2,65,335.9,186,218,186,218s-76.9,78.4-85.8,72.3,15-56,15-56Z" transform="translate(-62.8 -19.8)" fill="#fff"/></svg>