<svg xmlns="http://www.w3.org/2000/svg" viewBox="0 0 284.8 312"><title>imran-logo</title><g id="Layer_6" data-name="Layer 6"><path d="M164.5,143.5l.5.3c2.4,1.3,5.7,2.4,7.6.8s2.3-3.8,2.3-4h0a7.7,7.7,0,0,0-2.4-3.7l-6.3-4.7h-.3c-.8.1-1.4.4-3.8,3.2l-.6.6a78.6,78.6,0,0,0-6.1,7.2,11.8,11.8,0,0,1,4.2-.8A10.7,10.7,0,0,1,164.5,143.5Z" transform="translate(-26.9 -4.9)" fill="#fff"/><path d="M163,164.1h0l-.9,6.3,8.5-6.1A26.7,26.7,0,0,1,163,164.1Z" transform="translate(-26.9 -4.9)" fill="#fff"/><path d="M118.8,153.2h0Z" transform="translate(-26.9 -4.9)" fill="#fff"/><path d="M268.8,199.9a95.2,95.2,0,0,1-26.2,39.2s-1,.9-1.7.7a.6.6,0,0,1-.6-.7,308.8,308.8,0,0,0,5.5-43.3l3.5-6.5a84.1,84.1,0,0,0,5.1-28.9,85.4,85.4,0,0,0-127-74.7h1.1c5.4.9,7.8,3.7,8.9,5.8a9.6,9.6,0,0,1,1,4.5c-7.5,2.8-14.9,6-21.7,9.3-.2-.4,7.1-16.6,8.3-18s2.9-7.8-5.6-9.2-13.5,2.1-13.5,2.1a101.7,101.7,0,0,0-27.4,33.4c-.1,0-1.9,3.9-4.8.7a5.8,5.8,0,0,1-1.3-6.6A94,94,0,0,1,105,71.3l-7.3-3.6a87.8,87.8,0,0,0-30.6,33.7,15.9,15.9,0,0,0-1.2,10.4,22.7,22.7,0,0,0,4.4,9.9c.1,0,3.1,4.5,7.3,3.3a10.6,10.6,0,0,0,6.2-5.1c6.5-13.1,24.5-35,27.4-34.2a5.1,5.1,0,0,1,2.4-1.4,2.1,2.1,0,0,1,2.1.8,2.3,2.3,0,0,1-.3,1.7,157.9,157.9,0,0,0-7.5,18.3s-1,4.8,2.6,7.7,8.5.3,8.5.3c6.8-3.6,14.1-7,21.6-10.2,0-.1,3.2-1.3,3.6,0a2.2,2.2,0,0,1-.9,2.3,184.6,184.6,0,0,0-19.6,21.7,11.2,11.2,0,0,1-7.1-2.3,12.3,12.3,0,0,1-4.3-10.8,101.4,101.4,0,0,0-9.7,14.9,14.9,14.9,0,0,1-8.7,7.2,10.2,10.2,0,0,1-6.7-.5,85.5,85.5,0,0,0,81.7,110.4,84.5,84.5,0,0,0,45.6-13.2,21,21,0,0,0,.6-3.3c0-.2.4-2.7.5-3.1.6-2.2,1.6-6.2,3.1-14a150.3,150.3,0,0,0,17.5-23.8s1.5-2.7,2.2-2.6.6,1.5.6,1.5-1.2,16.8-3.6,30.7a252.7,252.7,0,0,1-5.9,26.1c-.7,2.2,1.9,4.7,6.7,5.3a11.9,11.9,0,0,0,7.5-1.4,88.5,88.5,0,0,0,30.5-41.7Zm-72.3-55.8.6-.4c5.7-4,11.9-3.9,16.4.1-4-.5-7.6,2.3-7.6,2.3-15.7,13.4-35.4,27.3-53.1,40,0,0-.4.5-.7.3a.4.4,0,0,1-.2-.5c1.5-9.4,2.9-19.5,4.4-29.5-.1.1,16.7,9.2,29.9-8,7.1-9.7,5.7-17.3,3.1-22.2,4.2,5.6,6.1,13.6,1.6,22.6Zm-46.2-34.9c2.1-2.2,4.3-5.7,4.1-8.7a10.4,10.4,0,0,1,3.2,1.4,9.7,9.7,0,0,1,4.7,7.2,12.2,12.2,0,0,1-.1,3.3,29.8,29.8,0,0,0-10.2,6.2,265.8,265.8,0,0,0-28.9,37.3c-.1,0-2.8,4.1-5.6,1.5s-.5-6.7-.5-6.7S145.8,111,150.3,109.2Zm-9.6,53.6a6.2,6.2,0,0,1-1.1,1.7h0c-4.1,5.1-8.4,7.8-12.7,8a11,11,0,0,1-8.8-3.3l-.7-.7c6,.3,11.5-7.5,11.6-7.5s22.9-31.6,26.7-34.7,5-5.3,8.2-5.9a6.8,6.8,0,0,1,5.1.9l7.9,5.9a14.9,14.9,0,0,1,5.3,8.2s1.7,5.5-4.8,11.2-15.6.4-16.7-.2-3.3-2-7.8.7a13.7,13.7,0,0,0-5.5,7.9c-1.4,10.6-2.6,21.2-4,31.1a10.8,10.8,0,0,0-.2,3.4,13.7,13.7,0,0,1-1-8.6c.7-4.9,1.3-9.9,2-15.2l1.2-9.5C143.2,159.2,141.4,161.7,140.7,162.8Zm39.8,52.3c-1.4-3.3-.9-7.2,1.5-11.6l1.2-1.7c2.7-4.1,11-24.5,15.2-36.1-11.6,9.3-24.9,18.5-37.8,27.3l-.4.2a15,15,0,0,1-8.4,2.1,15.1,15.1,0,0,0,3.3-1.3c17.9-12.2,37.7-25.9,53.4-39.4,0,0,2-1.9,3.7-.4s.9,4.3.9,4.3-20.7,54.2-23,56.6a15.2,15.2,0,0,0-2,6h-.4C183.3,219.8,181.3,217.1,180.5,215.1ZM236,172.6a158.3,158.3,0,0,1-34.5,45.7,3.4,3.4,0,0,1-2.5,1.2c-1.3,0-.8-1.5-.8-1.5,6.7-11.7,12.6-26,17.4-41.1,1.7-2.9,3.4-5.9,4.8-8.8a5.6,5.6,0,0,1,.5-.8c3.9-5.7,9.2-6.1,12.8-4a11.1,11.1,0,0,1,5.1,6.4A9.1,9.1,0,0,0,236,172.6Z" transform="translate(-26.9 -4.9)" fill="#fff"/><path d="M310.2,6.2c-3.1-2.9-8.9-3.4-42.6,24.5-15.1,12.5-29.7,25.7-33,28.8C193.4,32.2,150.2,40,132.3,45.1A41.7,41.7,0,0,1,114,46.2l-10.6-1.6A48.7,48.7,0,0,0,62.6,56.9L57,62.2c-1.8,1.8-3.5,3.7-5.2,5.7a49.3,49.3,0,0,0-7.9,49.5l2.7,6.9a43.2,43.2,0,0,1,2.7,21c-2.2,17.7-3.2,59.2,26.6,93.5-18.7,23.6-32.2,41.8-40.1,54s-10.7,19.7-7.3,22.8a4.4,4.4,0,0,0,3.3,1.3c4.5,0,14.1-5,39.3-25.8,14.9-12.4,29.3-25.4,32.9-28.7a119.5,119.5,0,0,0,62.4,17.1,136.4,136.4,0,0,0,35.3-4.7,43,43,0,0,1,22.8.2h.2a49.1,49.1,0,0,0,46.8-11.3,116.2,116.2,0,0,0,12.4-13.4l3.1-3.9a49,49,0,0,0,5.2-51,43.3,43.3,0,0,1-3.9-23.6c2.2-19.9,1-55.4-26.3-87.9,19.1-24,32.9-42.5,40.9-54.9S313.5,9.3,310.2,6.2ZM33.1,310.7c.9-4,7.9-18.2,46.9-67.4a99.2,99.2,0,0,0,10,9.2,106.2,106.2,0,0,0,8.8,6.6C72.2,283.3,41.3,308.4,33.1,310.7ZM286.8,198a43.2,43.2,0,0,1-4.6,44.8l-3,3.7a115.3,115.3,0,0,1-11.8,12.9,43.6,43.6,0,0,1-41.1,9.9h-.2a48.8,48.8,0,0,0-26-.2c-22.6,6.2-66.4,11.6-106.3-21.1C51.9,213.6,52.9,165.2,55.3,146a48.5,48.5,0,0,0-3.1-23.8l-2.7-7a43,43,0,0,1,7-43.4,48.8,48.8,0,0,1,4.8-5.3c1.8-1.8,3.6-3.6,5.4-5.2A42.5,42.5,0,0,1,95.7,50a38.9,38.9,0,0,1,6.8.5l10.6,1.6A49.1,49.1,0,0,0,134,50.9c18.8-5.4,67-13.9,109.5,22.8,39.3,34,41.2,75.6,38.8,97.4A49.6,49.6,0,0,0,286.8,198ZM247.4,69.2c-2.6-2.2-5.2-4.3-7.8-6.2,26.6-24.3,57.8-49.7,66-51.9-.9,4-7.9,18.3-47.6,68.3A114.7,114.7,0,0,0,247.4,69.2Z" transform="translate(-26.9 -4.9)" fill="#fff"/></g></svg>