<svg id="Layer_1" data-name="Layer 1" xmlns="http://www.w3.org/2000/svg" viewBox="0 0 239.4 317.3"><title>imran-logo</title><path d="M64.4,147.9h0a4,4,0,0,1,4,4.1v46.3s.1,3.8,4.5,3.8a3.9,3.9,0,0,0,4.2-4v-42s.1-5.9,6.9-8.8,11.1,3.3,12.1,5.4,4.5,9.7,6.6,14.3a1.6,1.6,0,0,0,2.9.1l7.8-15.6a10.6,10.6,0,0,1,9-4.6c6.3,0,9.3,6.1,9.3,9.8v41.8s.2,3.9,4.1,3.9a4.1,4.1,0,0,0,4.2-3.9V162.1s.3-6,4.3-10a14,14,0,0,1,10.6-4.1h11.8s20.1.2,20.1,16.4c0,12.1-10.6,16.4-15.9,17.8a1.9,1.9,0,0,0-1,3.1L183,202.2a.4.4,0,0,0,.4.2c.4,0,.5-.5.5-.5l18.3-48.4a11.6,11.6,0,0,1,20.8,0l19,48.2s.8,1.3,1.8.7a2.1,2.1,0,0,0,.8-2V153a7.2,7.2,0,0,1,5.5-6.1,6.4,6.4,0,0,1,7.6,3.4l30.8,47.3a.9.9,0,0,0,1,.4c.6-.3.6-1.7.6-1.7V152a4.1,4.1,0,0,1,4.1-4.1h0a4.1,4.1,0,0,1,4.1,4.1v52.4a7.1,7.1,0,0,1-12.7,3.6c-1.7-2.5-30.8-47.4-30.8-47.4s-.7-.9-1.4-.6-.6,2.9-.6,2.9v39a9.7,9.7,0,0,1-7.4,8.5c-6.9,1.9-10.5-4.3-11.5-7l-18.1-46.2a3.5,3.5,0,0,0-6.4,0l-18.3,48.5s-2.4,4.9-7.6,4.9a9,9,0,0,1-7.5-4.2l-16.1-20.3a7.8,7.8,0,0,1-.5-7.2c1.9-3.6,4.5-3.8,5.8-3.9s11.7-1.2,13.4-7.5-3.3-8.9-3.3-8.9a20.4,20.4,0,0,0-9.8-2.6H155a7.6,7.6,0,0,0-4.6,1.8c-2,1.8-2.3,3.8-2.3,7.4v33.2s-.7,12.1-12.1,12.1-12.4-11.7-12.4-11.7V157.2a1.9,1.9,0,0,0-1.2-1.9c-1.3-.8-2.7,1.6-2.7,1.6l-8.6,17.3a8.3,8.3,0,0,1-6.9,4.1,8.8,8.8,0,0,1-7.1-3.9L89,156.8a3,3,0,0,0-1.2-1.5,1.8,1.8,0,0,0-2.1.4,3.6,3.6,0,0,0-.5,2.4v40.5s.2,4-3.8,8.1a11.8,11.8,0,0,1-9,3.6,13.3,13.3,0,0,1-8.5-3.7,12.7,12.7,0,0,1-3.6-9.1V152A4,4,0,0,1,64.4,147.9Z" transform="translate(-60.3 -21.4)" fill="#fff"/><path d="M104.1,138.6a5,5,0,0,0,4.3-2.4,81.5,81.5,0,0,1,139.2,0,5,5,0,0,0,4.3,2.4h0a5,5,0,0,0,4.2-7.6,91.4,91.4,0,0,0-156.2,0,5,5,0,0,0,4.2,7.6Z" transform="translate(-60.3 -21.4)" fill="#fff"/><path d="M250.6,220.6a5.1,5.1,0,0,0-4.2,2.2,81.5,81.5,0,0,1-136.9,0,4.8,4.8,0,0,0-4.1-2.2h0a5,5,0,0,0-4.2,7.7,91.5,91.5,0,0,0,153.6,0,5,5,0,0,0-4.2-7.7Z" transform="translate(-60.3 -21.4)" fill="#fff"/><path d="M208.6,95.4s70.1-82.8,88.3-73.3-61.3,121.1-61.3,121.1S271.9,75.7,263.5,69s-49.2,30.6-49.2,30.6Z" transform="translate(-60.3 -21.4)" fill="#fff"/><path d="M109.6,231.7S50.6,322.8,65,337.5,186,219.6,186,219.6s-76.9,78.4-85.8,72.3,15-56,15-56Z" transform="translate(-60.3 -21.4)" fill="#fff"/></svg>