<svg xmlns="http://www.w3.org/2000/svg" width="4in" height="4.3in" viewBox="0 0 284.8 311.9"><title>imran-logo</title><g id="Layer_4" data-name="Layer 4"><path d="M129.6,155.8h0v0Z" transform="translate(-27 -4.9)" fill="#fff"/><path d="M159.6,142.3a10.7,10.7,0,0,1,4.9,1.2l.5.3c2.4,1.3,5.7,2.4,7.6.8s2.3-3.8,2.3-4h0a7.7,7.7,0,0,0-2.4-3.7l-6.3-4.7h-.3c-.8.1-1.4.4-3.8,3.2l-.6.6a78.6,78.6,0,0,0-6.1,7.2A11.8,11.8,0,0,1,159.6,142.3Z" transform="translate(-27 -4.9)" fill="#fff"/><path d="M163,164.1h0l-.9,6.3,8.5-6.1A26.7,26.7,0,0,1,163,164.1Z" transform="translate(-27 -4.9)" fill="#fff"/><path d="M138.9,165.1l.5-.4Z" transform="translate(-27 -4.9)" fill="#fff"/><path d="M214.6,229a4.6,4.6,0,0,0,.3-.9,200.6,200.6,0,0,0,4.6-20.4c.3-2.2.7-4.5,1-6.9a117.3,117.3,0,0,1-16.1,16.9h0a19.3,19.3,0,0,1-16.7,3.4c-4.4-1.2-6.4-3.9-7.2-5.9s-.9-7.2,1.5-11.6a6.4,6.4,0,0,1,1.3-1.5c2.6-4.1,10.9-24.7,15.1-36.3-11.6,9.3-24.9,18.5-37.8,27.3l-.4.2c-3.9,2.2-9.7,3.4-14,0s-4.8-8.4-4-12.3,1.3-9.9,2-15.2l1.2-9.5c-2.2,3-4,5.5-4.7,6.6a6.2,6.2,0,0,1-1.1,1.7h0c-4.1,5.1-8.4,7.8-12.7,8a11,11,0,0,1-8.8-3.3c-9-8.3-3.8-21.9-2.4-24.1v-.2a164.5,164.5,0,0,1,13.3-19.2c-4.4,2-9.1,1.6-12.5-1.1a12.3,12.3,0,0,1-4.3-10.8,101.4,101.4,0,0,0-9.7,14.9,14.9,14.9,0,0,1-8.7,7.2,10.2,10.2,0,0,1-6.7-.5,85.5,85.5,0,0,0,81.7,110.4,84.5,84.5,0,0,0,45.6-13.2A8.8,8.8,0,0,1,214.6,229Z" transform="translate(-27 -4.9)" fill="#fff"/><path d="M136,166.2h0Z" transform="translate(-27 -4.9)" fill="#fff"/><path d="M201.3,156.3a1.6,1.6,0,0,0-.4.7,5.9,5.9,0,0,1,.4-.8Z" transform="translate(-27 -4.9)" fill="#fff"/><path d="M125.7,157.6h0Z" transform="translate(-27 -4.9)" fill="#fff"/><path d="M249.3,189.3a84.1,84.1,0,0,0,5.1-28.9,85.4,85.4,0,0,0-127-74.7h1.1c5.4.9,7.8,3.7,8.9,5.8a10.6,10.6,0,0,1-.3,9.8,2.2,2.2,0,0,1-.5.8l-.5,1c2.3-.9,4.7-1.9,7.1-2.7h0c4-1.6,10.6-1,14.4,1.4a9.7,9.7,0,0,1,4.7,7.2,12.4,12.4,0,0,1-.8,5.7l2.6-.7c7.1-1.4,11.4.8,14,2.7a90.4,90.4,0,0,1,7.7,5.6h0c6.3,5.4,10.8,15.1,5.1,26.4l5.6-4.7.6-.4c5.7-4,12-3.9,16.4.1s5.1,13.4,4.3,16.7h.1c-2.2,8.4-4.7,16.6-7.4,24.2a117.3,117.3,0,0,0,9.9-16.6,5.6,5.6,0,0,1,.5-.8c3.9-5.7,9.2-6.1,12.8-4s6,5,5.8,12.3a269.8,269.8,0,0,1-2.4,36" transform="translate(-27 -4.9)" fill="#fff"/><path d="M121.2,90.7c0,.1.1.2.1.4h0C121.3,90.9,121.2,90.8,121.2,90.7Z" transform="translate(-27 -4.9)" fill="#fff"/><path d="M118.8,153.2Z" transform="translate(-27 -4.9)" fill="#fff"/><path d="M97.7,67.7l7.3,3.6a94,94,0,0,0-32.6,36.5,5.8,5.8,0,0,0,1.3,6.6c2.9,3.2,4.7-.7,4.8-.7a101.7,101.7,0,0,1,27.4-33.4s5-3.7,13.5-2.1,6.5,7.2,5.6,9.2-8.5,17.6-8.3,18c7.4-3.6,15.4-7,23.7-10.1,0,0,6.4-2,11.4,1.2s1.7,9.4-1.5,12.7S115.5,150,117,150.7s-2.3,4.2.5,6.7,5.5-1.5,5.6-1.5A265.8,265.8,0,0,1,152,118.6s5.5-5.4,12.2-6.7,10,.9,11.6,2l8.7,6.4c-.1,0,14.4,10.8,1.7,28.1s-30,8.1-29.9,8c-1.5,10-2.9,20.1-4.4,29.5a.4.4,0,0,0,.2.5c.3.2.7-.3.7-.3,17.7-12.7,37.4-26.6,53.1-40,0,0,6.5-5.1,11.5-.5s3.3,13.4,3.3,13.4c-5.4,21.4-13.2,42.7-22.5,59,0,0-.5,1.5.8,1.5a3.4,3.4,0,0,0,2.5-1.2A158.3,158.3,0,0,0,236,172.6s2.9-5.1,6.7-2.9,3.6,7.3,3.6,8.9a312.4,312.4,0,0,1-6,60.5.6.6,0,0,0,.6.7c.7.2,1.7-.7,1.7-.7a95.2,95.2,0,0,0,26.2-39.2l5.4,6.4A88.5,88.5,0,0,1,243.7,248a11.9,11.9,0,0,1-7.5,1.4c-4.8-.6-7.4-3.1-6.7-5.3a252.7,252.7,0,0,0,5.9-26.1c2.4-13.9,3.7-30.8,3.6-30.7s0-1.3-.6-1.5-2.2,2.6-2.2,2.6a143.4,143.4,0,0,1-29.4,35.4c0,.1-6.3,4.8-13.8,2.6s-4.5-8.4-2.9-11.3c2.9-.4,24.3-55.6,23-56.6s.9-2.8-.9-4.3-3.7.4-3.7.4c-15.7,13.5-35.5,27.2-53.4,39.4,0,0-5.7,3.3-9.4.4s-2.3-8.3-2.3-8.3c1.4-9.9,2.6-20.5,4-31.1a13.7,13.7,0,0,1,5.5-7.9c4.5-2.7,6.7-1.3,7.8-.7s10.2,6,16.7.2,4.8-11.2,4.8-11.2a14.9,14.9,0,0,0-5.3-8.2l-7.9-5.9a6.8,6.8,0,0,0-5.1-.9c-3.2.6-5.1,2.3-8.2,5.9S128.3,160.8,129,161s-8.8,12.5-16.3,5.3-2-20.6-1.8-20.5a187.3,187.3,0,0,1,32.4-40.6,2.2,2.2,0,0,0,.9-2.3c-.4-1.3-3.6-.1-3.6,0-7.5,3.2-14.8,6.6-21.6,10.2,0,0-4.8,2.5-8.5-.3s-2.6-7.7-2.6-7.7a157.9,157.9,0,0,1,7.5-18.3,2.3,2.3,0,0,0,.3-1.7,2.1,2.1,0,0,0-2.1-.8,5.1,5.1,0,0,0-2.4,1.4c-2.9-.8-20.9,21.1-27.4,34.2a10.6,10.6,0,0,1-6.2,5.1c-4.2,1.2-7.2-3.3-7.3-3.3a22.7,22.7,0,0,1-4.4-9.9,15.9,15.9,0,0,1,1.2-10.4A87.8,87.8,0,0,1,97.7,67.7Z" transform="translate(-27 -4.9)" fill="#fff"/><path d="M235.9,62.3S383-72.7,259.2,82.7" transform="translate(-27 -4.9)" fill="none" stroke="#fff" stroke-miterlimit="10" stroke-width="6"/><path d="M102.8,259.5s-147.1,135-23.3-20.4" transform="translate(-27 -4.9)" fill="none" stroke="#fff" stroke-miterlimit="10" stroke-width="6"/></g><g id="Layer_6" data-name="Layer 6"><path d="M113.6,49.2A46.4,46.4,0,0,0,133.2,48c19.4-5.6,68.7-14.2,112.3,23.5,40.9,35.4,42.1,79.2,39.8,99.9a46,46,0,0,0,4.2,25.3h0a46.3,46.3,0,0,1-4.9,47.9l-3,3.8a135.2,135.2,0,0,1-12.1,13.1,45.8,45.8,0,0,1-44,10.6h-.2a47,47,0,0,0-24.4-.2c-20.7,5.6-67.2,12.5-109-21.7S49.7,166.7,52.3,145.6a46,46,0,0,0-2.9-22.3l-2.7-7a46.6,46.6,0,0,1,7.4-46.5c1.6-1.8,3.2-3.6,5.1-5.4s3.7-3.7,5.5-5.3A46.2,46.2,0,0,1,103,47.5Z" transform="translate(-27 -4.9)" fill="none" stroke="#fff" stroke-miterlimit="10" stroke-width="6"/></g></svg>