<svg id="Layer_1" data-name="Layer 1" xmlns="http://www.w3.org/2000/svg" viewBox="0 0 344 338.8"><title>insta</title><path d="M180.2,148c-18.3.5-32.1,14.1-32,32s14.1,31.9,31.8,31.8a31.3,31.3,0,0,0,31.8-31.9C211.8,161.9,197.9,148.6,180.2,148Z" transform="translate(-8 -10.6)" fill="#fff"/><path d="M245.4,110c-6.9-5.6-15.1-7.4-23.6-8.1-10.3-.9-20.6-.5-30.8-.8-12.6-.4-25.1.2-37.6.3a167.9,167.9,0,0,0-18.8.9c-7.8,1-15.1,3.3-21.1,8.7-8.2,7.3-10.7,17-11.6,27.3s-.5,20.7-.8,31c-.2,12.4.2,24.7.3,37a171.5,171.5,0,0,0,.9,19c1.1,9.7,4.5,18.3,12.3,24.7s15.1,7.4,23.6,8.1c11.8.8,23.6.6,35.5.8s21-.1,31.5-.3c8.4-.1,16.9,0,25.2-1.8,13.6-2.9,22.4-11.1,26-24.7,1.6-5.8,1.9-11.8,2.1-17.8.2-11.4,0-22.8,0-34.2h.1V153.5a167.9,167.9,0,0,0-.9-18.8C256.6,125,253.2,116.4,245.4,110ZM179.9,229.8c-28.1,0-49.5-22.3-49.8-49.9s22.4-49.8,50.1-49.7a49.8,49.8,0,0,1-.3,99.6Zm51.6-89.4a11.9,11.9,0,1,1,11.9-11.8A12,12,0,0,1,231.5,140.4Z" transform="translate(-8 -10.6)" fill="#fff"/><path d="M292.3,51.5,180,10.6,67.7,51.5,8,154.9,28.8,272.6l91.5,76.8H239.7l91.5-76.8L352,154.9ZM276.5,214.4c-.3,9.5-1,19-4.5,28-7.1,18.4-20.8,28.7-39.8,32.5a100.2,100.2,0,0,1-17.3,1.5c-18.1.6-36.2.7-54.3.4-10.1-.2-20.3,0-30.3-1.5-17.2-2.7-30.9-10.8-39.4-26.4a57.4,57.4,0,0,1-6.6-22.5c-.8-7.7-.7-15.4-.9-23-.5-13.8-.4-27.6-.2-41.5.2-10.5.1-21.1,1.5-31.6,3.4-24.8,20.7-42.1,45.5-45.6,5.5-.7,11.1-1,16.7-1.2,17.1-.5,34.3-.6,51.5-.3,10.4.2,20.9-.1,31.2,1.5,17.2,2.6,30.9,10.7,39.5,26.3a60.9,60.9,0,0,1,6.6,22.5c.8,7.6.7,15.2.9,22.8s.1,15.8.2,23.7C277.1,191.5,276.7,202.9,276.5,214.4Z" transform="translate(-8 -10.6)" fill="#fff"/></svg>