<svg xmlns="http://www.w3.org/2000/svg" xmlns:xlink="http://www.w3.org/1999/xlink" width="2049.8" height="580.9" viewBox="0 0 2049.8 580.9"><defs><linearGradient id="linear-gradient" x1="1024.91" y1="160.06" x2="1024.91" y2="558.19" gradientUnits="userSpaceOnUse"><stop offset="0" stop-color="#1c1847" stop-opacity="0"/><stop offset="0.12" stop-color="#1c1847" stop-opacity="0.3"/><stop offset="0.3" stop-color="#1c1847" stop-opacity="0.61"/><stop offset="0.48" stop-color="#1c1847" stop-opacity="0.83"/><stop offset="0.7" stop-color="#1c1847" stop-opacity="0.96"/><stop offset="1" stop-color="#1c1847"/></linearGradient></defs><title>section-break</title><g id="triangles"><polygon points="2049.2 438 2049.8 580.9 2049.1 440.4 2049.2 438" fill="#afafaf"/><polygon points="2049.1 440.4 2049.8 580.9 1816 515.8 2049.1 440.4" fill="#9a1e48"/><polygon points="2049.8 580.9 1761.9 580.9 1761.9 580.2 1816 515.8 2049.8 580.9" fill="#d6224f"/><polygon points="2049.7 0 2049.7 0.2 1930.2 122.8 2049.7 0" fill="#afafaf"/><polygon points="1930.2 122.8 2049.7 0.2 2049.4 186.6 1930.2 122.8" fill="#9a1e48"/><polygon points="2049.4 186.6 2049.4 186.9 1858.9 252.5 1930.2 122.8 2049.4 186.6" fill="#d6224f"/><polygon points="2049.4 186.9 2049.4 187.4 1945.4 357.1 1858.9 252.5 2049.4 186.9" fill="#9a1e48"/><polygon points="1945.4 357.1 2049.4 187.4 2049.1 428.2 2049.2 438 2049.1 440.4 1945.4 357.1" fill="#d6224f"/><polygon points="2049.1 440.4 1816 515.8 1717.6 414 2049.1 440.4" fill="#9a1e48"/><polygon points="2049.1 440.4 1717.6 414 1784.1 336.4 2049.1 440.4" fill="#d6224f"/><polygon points="2049.1 440.4 1784.1 336.4 1945.4 357.1 2049.1 440.4" fill="#401641"/><polygon points="1858.9 252.5 1945.4 357.1 1784.1 336.4 1858.9 252.5" fill="#d6224f"/><polygon points="1930.2 122.8 1858.9 252.5 1748.3 154.4 1930.2 122.8" fill="#9a1e48"/><polygon points="1858.9 252.5 1784.1 336.4 1680.6 236.9 1858.9 252.5" fill="#9a1e48"/><polygon points="1858.9 252.5 1680.6 236.9 1748.3 154.4 1858.9 252.5" fill="#401641"/><polygon points="1717.6 414 1816 515.8 1543.7 453.9 1717.6 414" fill="#401641"/><polygon points="1816 515.8 1761.9 580.2 1543.7 453.9 1816 515.8" fill="#9a1e48"/><polygon points="1784.1 336.4 1717.6 414 1583.6 333.9 1784.1 336.4" fill="#9a1e48"/><polygon points="1784.1 336.4 1583.6 333.9 1680.6 236.9 1784.1 336.4" fill="#d6224f"/><polygon points="1761.9 580.2 1761.9 580.9 1405.8 580.9 1543.7 453.9 1761.9 580.2" fill="#d6224f"/><polygon points="1748.3 154.4 1680.6 236.9 1573.4 98.3 1748.3 154.4" fill="#d6224f"/><polygon points="1717.6 414 1543.7 453.9 1583.6 333.9 1717.6 414" fill="#d6224f"/><polygon points="1573.4 98.3 1680.6 236.9 1539.8 232.2 1573.4 98.3" fill="#6e1741"/><polygon points="1680.6 236.9 1583.6 333.9 1539.8 232.2 1680.6 236.9" fill="#9a1e48"/><polygon points="1539.8 232.2 1583.6 333.9 1446.7 336.4 1539.8 232.2" fill="#d6224f"/><polygon points="1583.6 333.9 1543.7 453.9 1446.7 336.4 1583.6 333.9" fill="#9a1e48"/><polygon points="1573.4 98.3 1539.8 232.2 1360 168.5 1573.4 98.3" fill="#d6224f"/><polygon points="1446.7 336.4 1543.7 453.9 1333.9 390.5 1446.7 336.4" fill="#6e1741"/><polygon points="1543.7 453.9 1405.8 580.9 1404 580.9 1330.3 512.9 1543.7 453.9" fill="#9a1e48"/><polygon points="1543.7 453.9 1330.3 512.9 1333.9 390.5 1543.7 453.9" fill="#401641"/><polygon points="1539.8 232.2 1446.7 336.4 1286.4 274.4 1539.8 232.2" fill="#401641"/><polygon points="1539.8 232.2 1286.4 274.4 1360 168.5 1539.8 232.2" fill="#9a1e48"/><polygon points="1446.7 336.4 1333.9 390.5 1286.4 274.4 1446.7 336.4" fill="#9a1e48"/><polygon points="1404 580.9 1084.6 580.9 1330.3 512.9 1404 580.9" fill="#6e1741"/><polygon points="1360 168.5 1286.4 274.4 1202.6 108.8 1360 168.5" fill="#d6224f"/><polygon points="1286.4 274.4 1333.9 390.5 1218.3 405.1 1286.4 274.4" fill="#6e1741"/><polygon points="1333.9 390.5 1330.3 512.9 1218.3 405.1 1333.9 390.5" fill="#9a1e48"/><polygon points="1330.3 512.9 1084.6 580.9 1082.2 580.9 1218.3 405.1 1330.3 512.9" fill="#9a1e48"/><polygon points="1202.6 108.8 1286.4 274.4 1181.6 199.3 1202.6 108.8" fill="#401641"/><polygon points="1286.4 274.4 1218.3 405.1 1100.8 314.6 1286.4 274.4" fill="#d6224f"/><polygon points="1286.4 274.4 1100.8 314.6 1181.6 199.3 1286.4 274.4" fill="#9a1e48"/><polygon points="1218.3 405.1 1082.2 580.9 918.5 580.9 918.5 580.5 1218.3 405.1" fill="#6e1741"/><polygon points="1218.3 405.1 918.5 580.5 862.6 410.8 1218.3 405.1" fill="#401641"/><polygon points="1218.3 405.1 862.6 410.8 1100.8 314.6 1218.3 405.1" fill="#d6224f"/><polygon points="1202.6 108.8 1181.6 199.3 1003.2 150.9 1202.6 108.8" fill="#d6224f"/><polygon points="1181.6 199.3 1100.8 314.6 1003.2 150.9 1181.6 199.3" fill="#6e1741"/><polygon points="1003.2 150.9 1100.8 314.6 863.2 266.8 1003.2 150.9" fill="#9a1e48"/><polygon points="1100.8 314.6 862.6 410.8 670.5 303 1100.8 314.6" fill="#9a1e48"/><polygon points="1100.8 314.6 670.5 303 863.2 266.8 1100.8 314.6" fill="#401641"/><polygon points="1003.2 150.9 863.2 266.8 737.4 143.9 1003.2 150.9" fill="#401641"/><polygon points="1003.2 150.9 737.4 143.9 838.8 77.2 1003.2 150.9" fill="#d6224f"/><polygon points="918.5 580.5 918.5 580.9 616.6 580.8 616.6 580.4 680.7 449.1 918.5 580.5" fill="#6e1741"/><polygon points="862.6 410.8 918.5 580.5 680.7 449.1 862.6 410.8" fill="#9a1e48"/><polygon points="863.2 266.8 670.5 303 737.4 143.9 863.2 266.8" fill="#9a1e48"/><polygon points="862.6 410.8 680.7 449.1 670.5 303 862.6 410.8" fill="#d6224f"/><polygon points="737.4 143.9 670.5 303 509 221.2 737.4 143.9" fill="#d6224f"/><polygon points="737.4 143.9 509 221.2 576.4 87.8 737.4 143.9" fill="#9a1e48"/><polygon points="670.5 303 680.7 449.1 495.4 459.3 670.5 303" fill="#9a1e48"/><polygon points="680.7 449.1 616.6 580.4 495.4 459.3 680.7 449.1" fill="#d6224f"/><polygon points="670.5 303 495.4 459.3 337.3 352.2 670.5 303" fill="#6e1741"/><polygon points="670.5 303 337.3 352.2 509 221.2 670.5 303" fill="#401641"/><polygon points="616.6 580.4 616.6 580.8 234.8 580.8 495.4 459.3 616.6 580.4" fill="#d6224f"/><polygon points="576.4 87.8 509 221.2 387.6 147.4 576.4 87.8" fill="#d6224f"/><polygon points="509 221.2 337.3 352.2 192.5 300.1 509 221.2" fill="#d6224f"/><polygon points="509 221.2 192.5 300.1 387.6 147.4 509 221.2" fill="#9a1e48"/><polygon points="495.4 459.3 234.8 580.8 232.8 580.8 159.8 500.3 495.4 459.3" fill="#401641"/><polygon points="495.4 459.3 159.8 500.3 337.3 352.2 495.4 459.3" fill="#9a1e48"/><polygon points="387.6 147.4 192.5 300.1 134.8 106.5 387.6 147.4" fill="#d6224f"/><polygon points="337.3 352.2 159.8 500.3 85.3 381.2 337.3 352.2" fill="#401641"/><polygon points="337.3 352.2 85.3 381.2 192.5 300.1 337.3 352.2" fill="#6e1741"/><polygon points="159.8 500.3 232.8 580.8 88.4 580.8 88.4 580.5 159.8 500.3" fill="#9a1e48"/><polygon points="134.8 106.5 192.5 300.1 1.9 246.5 134.8 106.5" fill="#401641"/><polygon points="192.5 300.1 85.3 381.2 1.9 246.5 192.5 300.1" fill="#d6224f"/><polygon points="85.3 381.2 159.8 500.3 2 471.2 85.3 381.2" fill="#9a1e48"/><polygon points="159.8 500.3 88.4 580.5 2 471.2 159.8 500.3" fill="#d6224f"/><polygon points="134.8 106.5 1.9 246.5 1.7 246.5 1.7 1 134.8 106.5" fill="#9a1e48"/><polygon points="88.4 580.5 88.4 580.8 1.7 580.8 1.7 246.5 1.9 246.5 2 471.2 88.4 580.5" fill="#9a1e48"/><polygon points="1.9 246.5 85.3 381.2 2 471.2 1.9 246.5" fill="#6e1741"/></g><g id="gradient"><rect y="156.5" width="2049.8" height="424.41" fill="url(#linear-gradient)"/></g></svg>