<svg viewBox="0 0 2048 597.6" xmlns="http://www.w3.org/2000/svg" xmlns:xlink="http://www.w3.org/1999/xlink"><linearGradient id="a" gradientUnits="userSpaceOnUse" x1="1025.2" x2="1025.2" y1="197.97" y2="588.87"><stop offset="0" stop-opacity="0"/><stop offset=".92"/></linearGradient><path d="m2056.8 16.7v188l-120.4-64.4z" fill="#9a9a9a"/><path d="m2056.1 457.6v2.4l-104.4-83.8 105.1-171.5z" fill="#d6d6d6"/><path d="m2056.8 204.7-105.1 171.5-87.1-105.3z" fill="#9a9a9a"/><path d="m2056.1 460 .7 141.4-235.3-65.5z" fill="#9a9a9a"/><path d="m2056.8 204.7-192.2 66.2 71.8-130.6z" fill="#d6d6d6"/><path d="m2056.8 601.4h-289.8v-.7l54.5-64.8z" fill="#d6d6d6"/><path d="m2056.1 460-234.6 75.9-99.1-102.5z" fill="#9a9a9a"/><path d="m2056.1 460-333.7-26.6 66.9-78.1z" fill="#d6d6d6"/><path d="m2056.1 460-266.8-104.7 162.4 20.9z" fill="#414141"/><path d="m1864.6 270.9 87.1 105.3-162.4-20.9z" fill="#d6d6d6"/><path d="m1936.4 140.3-71.8 130.6-111.3-98.8z" fill="#9a9a9a"/><path d="m1864.6 270.9-75.3 84.4-104.2-100.2z" fill="#9a9a9a"/><path d="m1864.6 270.9-179.5-15.8 68.2-83z" fill="#414141"/><path d="m1722.4 433.4 99.1 102.5-274.1-62.3z" fill="#414141"/><path d="m1821.5 535.9-54.5 64.8-219.6-127.1z" fill="#9a9a9a"/><path d="m1789.3 355.3-66.9 78.1-134.9-80.6z" fill="#9a9a9a"/><path d="m1789.3 355.3-201.8-2.5 97.6-97.7z" fill="#eee"/><g fill="#d6d6d6"><path d="m1767 600.7v.7h-358.4l138.8-127.8z"/><path d="m1753.3 172.1-68.2 83-107.9-139.5z"/><path d="m1722.4 433.4-175 40.2 40.1-120.8z"/></g><path d="m1577.2 115.6 107.9 139.5-141.7-4.7z" fill="#6e6e6e"/><path d="m1685.1 255.1-97.6 97.7-44.1-102.4z" fill="#9a9a9a"/><path d="m1543.4 250.4 44.1 102.4-137.7 2.5z" fill="#d6d6d6"/><path d="m1587.5 352.8-40.1 120.8-97.6-118.3z" fill="#9a9a9a"/><path d="m1577.2 115.6-33.8 134.8-180.9-64.1z" fill="#d6d6d6"/><path d="m1449.8 355.3 97.6 118.3-211.2-63.8z" fill="#6e6e6e"/><path d="m1547.4 473.6-138.8 127.8h-1.8l-74.2-68.4z" fill="#9a9a9a"/><path d="m1547.4 473.6-214.8 59.4 3.6-123.2z" fill="#414141"/><path d="m1543.4 250.4-93.6 104.9-161.4-62.4z" fill="#414141"/><path d="m1543.4 250.4-255 42.5 74.1-106.6z" fill="#9a9a9a"/><path d="m1449.8 355.3-113.6 54.5-47.8-116.9z" fill="#9a9a9a"/><path d="m1406.8 601.4-321.6-.1 247.4-68.3z" fill="#6e6e6e"/><path d="m1362.5 186.3-74.1 106.6-84.4-166.7z" fill="#d6d6d6"/><path d="m1288.4 292.9 47.8 116.9-116.4 14.7z" fill="#6e6e6e"/><path d="m1336.2 409.8-3.6 123.2-112.8-108.5z" fill="#c2c2c2"/><path d="m1332.6 533-247.4 68.3h-2.3l136.9-176.8z" fill="#9a9a9a"/><path d="m1204 126.2 84.4 166.7-105.5-75.6z" fill="#414141"/><path d="m1288.4 292.9-68.6 131.6-118.2-91.2z" fill="#eee"/><path d="m1288.4 292.9-186.8 40.4 81.3-116z" fill="#9a9a9a"/><path d="m1219.8 424.5-136.9 176.8h-164.8v-.3z" fill="#6e6e6e"/><path d="m1219.8 424.5-301.7 176.5-56.3-170.8z" fill="#414141"/><path d="m1219.8 424.5-358 5.7 239.8-96.9z" fill="#d6d6d6"/><path d="m1204 126.2-21.1 91.1-179.6-48.7z" fill="#d6d6d6"/><path d="m1182.9 217.3-81.3 116-98.3-164.7z" fill="#6e6e6e"/><path d="m1003.3 168.6 98.3 164.7-239.2-48.1z" fill="#9a9a9a"/><path d="m1101.6 333.3-239.8 96.9-193.3-108.5z" fill="#9a9a9a"/><path d="m1101.6 333.3-433.1-11.6 193.9-36.5z" fill="#414141"/><path d="m1003.3 168.6-140.9 116.6-126.6-123.7z" fill="#414141"/><path d="m1003.3 168.6-267.5-7.1 102.1-67.1z" fill="#d6d6d6"/><path d="m918.1 601v.3h-303.9v-.4l64.6-132.2z" fill="#6e6e6e"/><path d="m861.8 430.2 56.3 170.8-239.3-132.3z" fill="#9a9a9a"/><path d="m862.4 285.2-193.9 36.5 67.3-160.2z" fill="#9a9a9a"/><path d="m861.8 430.2-183 38.5-10.3-147z" fill="#d6d6d6"/><path d="m735.8 161.5-67.3 160.2-162.6-82.3z" fill="#eee"/><path d="m735.8 161.5-229.9 77.9 67.9-134.4z" fill="#9a9a9a"/><path d="m668.5 321.7 10.3 147-186.6 10.3z" fill="#9a9a9a"/><path d="m678.8 468.7-64.6 132.2-122-121.9z" fill="#d6d6d6"/><path d="m668.5 321.7-176.3 157.3-159.1-107.8z" fill="#6e6e6e"/><path d="m668.5 321.7-335.4 49.5 172.8-131.8z" fill="#414141"/><path d="m614.2 600.9v.4h-384.2l262.2-122.3z" fill="#d6d6d6"/><path d="m573.8 105-67.9 134.4-122.2-74.3z" fill="#d6d6d6"/><path d="m505.9 239.4-172.8 131.8-145.8-52.5z" fill="#d6d6d6"/><path d="m505.9 239.4-318.6 79.3 196.4-153.6z" fill="#9a9a9a"/><path d="m492.2 479-262.2 122.3h-2.1l-73.4-81.1z" fill="#414141"/><path d="m492.2 479-337.7 41.2 178.6-149z" fill="#9a9a9a"/><path d="m383.7 165.1-196.4 153.6-58.1-194.8z" fill="#d6d6d6"/><path d="m333.1 371.2-178.6 149-75.1-119.8z" fill="#414141"/><path d="m333.1 371.2-253.7 29.2 107.9-81.7z" fill="#6e6e6e"/><path d="m154.5 520.2 73.4 81.1h-145.3v-.3z" fill="#9a9a9a"/><path d="m129.2 123.9 58.1 194.8-191.8-53.9z" fill="#414141"/><path d="m187.3 318.7-107.9 81.7-83.9-135.6z" fill="#eee"/><path d="m79.4 400.4 75.1 119.8-158.9-29.2z" fill="#9a9a9a"/><path d="m154.5 520.2-71.9 80.8-87-110z" fill="#d6d6d6"/><path d="m129.2 123.9-133.7 140.9h-.2v-247.1z" fill="#9a9a9a"/><path d="m82.6 601v.3h-87.3v-336.5h.2l.1 226.2z" fill="#9a9a9a"/><path d="m-4.5 264.8 83.9 135.6-83.8 90.6z" fill="#6e6e6e"/><path d="m-6.4 188.5h2063.2v412.93h-2063.2z" fill="url(#a)"/></svg>