<svg xmlns="http://www.w3.org/2000/svg" xmlns:xlink="http://www.w3.org/1999/xlink" viewBox="0 0 2048 597.6"><defs><linearGradient id="linear-gradient" x1="1025.2" y1="197.97" x2="1025.2" y2="588.87" gradientUnits="userSpaceOnUse"><stop offset="0" stop-opacity="0"/><stop offset="0.92"/></linearGradient></defs><title>section-break</title><g id="triangles"><polygon points="2056.8 16.7 2056.8 204.7 1936.4 140.3 2056.8 16.7" fill="#9a9a9a"/><polygon points="2056.1 457.6 2056.1 460 1951.7 376.2 2056.8 204.7 2056.1 457.6" fill="#d6d6d6"/><polygon points="2056.8 204.7 1951.7 376.2 1864.6 270.9 2056.8 204.7" fill="#9a9a9a"/><polygon points="2056.1 460 2056.8 601.4 1821.5 535.9 2056.1 460" fill="#9a9a9a"/><polygon points="2056.8 204.7 1864.6 270.9 1936.4 140.3 2056.8 204.7" fill="#d6d6d6"/><polygon points="2056.8 601.4 1767 601.4 1767 600.7 1821.5 535.9 2056.8 601.4" fill="#d6d6d6"/><polygon points="2056.1 460 1821.5 535.9 1722.4 433.4 2056.1 460" fill="#9a9a9a"/><polygon points="2056.1 460 1722.4 433.4 1789.3 355.3 2056.1 460" fill="#d6d6d6"/><polygon points="2056.1 460 1789.3 355.3 1951.7 376.2 2056.1 460" fill="#414141"/><polygon points="1864.6 270.9 1951.7 376.2 1789.3 355.3 1864.6 270.9" fill="#d6d6d6"/><polygon points="1936.4 140.3 1864.6 270.9 1753.3 172.1 1936.4 140.3" fill="#9a9a9a"/><polygon points="1864.6 270.9 1789.3 355.3 1685.1 255.1 1864.6 270.9" fill="#9a9a9a"/><polygon points="1864.6 270.9 1685.1 255.1 1753.3 172.1 1864.6 270.9" fill="#414141"/><polygon points="1722.4 433.4 1821.5 535.9 1547.4 473.6 1722.4 433.4" fill="#414141"/><polygon points="1821.5 535.9 1767 600.7 1547.4 473.6 1821.5 535.9" fill="#9a9a9a"/><polygon points="1789.3 355.3 1722.4 433.4 1587.5 352.8 1789.3 355.3" fill="#9a9a9a"/><polygon points="1789.3 355.3 1587.5 352.8 1685.1 255.1 1789.3 355.3" fill="#eee"/><polygon points="1767 600.7 1767 601.4 1408.6 601.4 1547.4 473.6 1767 600.7" fill="#d6d6d6"/><polygon points="1753.3 172.1 1685.1 255.1 1577.2 115.6 1753.3 172.1" fill="#d6d6d6"/><polygon points="1722.4 433.4 1547.4 473.6 1587.5 352.8 1722.4 433.4" fill="#d6d6d6"/><polygon points="1577.2 115.6 1685.1 255.1 1543.4 250.4 1577.2 115.6" fill="#6e6e6e"/><polygon points="1685.1 255.1 1587.5 352.8 1543.4 250.4 1685.1 255.1" fill="#9a9a9a"/><polygon points="1543.4 250.4 1587.5 352.8 1449.8 355.3 1543.4 250.4" fill="#d6d6d6"/><polygon points="1587.5 352.8 1547.4 473.6 1449.8 355.3 1587.5 352.8" fill="#9a9a9a"/><polygon points="1577.2 115.6 1543.4 250.4 1362.5 186.3 1577.2 115.6" fill="#d6d6d6"/><polygon points="1449.8 355.3 1547.4 473.6 1336.2 409.8 1449.8 355.3" fill="#6e6e6e"/><polygon points="1547.4 473.6 1408.6 601.4 1406.8 601.4 1332.6 533 1547.4 473.6" fill="#9a9a9a"/><polygon points="1547.4 473.6 1332.6 533 1336.2 409.8 1547.4 473.6" fill="#414141"/><polygon points="1543.4 250.4 1449.8 355.3 1288.4 292.9 1543.4 250.4" fill="#414141"/><polygon points="1543.4 250.4 1288.4 292.9 1362.5 186.3 1543.4 250.4" fill="#9a9a9a"/><polygon points="1449.8 355.3 1336.2 409.8 1288.4 292.9 1449.8 355.3" fill="#9a9a9a"/><polygon points="1406.8 601.4 1085.2 601.3 1332.6 533 1406.8 601.4" fill="#6e6e6e"/><polygon points="1362.5 186.3 1288.4 292.9 1204 126.2 1362.5 186.3" fill="#d6d6d6"/><polygon points="1288.4 292.9 1336.2 409.8 1219.8 424.5 1288.4 292.9" fill="#6e6e6e"/><polygon points="1336.2 409.8 1332.6 533 1219.8 424.5 1336.2 409.8" fill="#c2c2c2"/><polygon points="1332.6 533 1085.2 601.3 1082.9 601.3 1219.8 424.5 1332.6 533" fill="#9a9a9a"/><polygon points="1204 126.2 1288.4 292.9 1182.9 217.3 1204 126.2" fill="#414141"/><polygon points="1288.4 292.9 1219.8 424.5 1101.6 333.3 1288.4 292.9" fill="#eee"/><polygon points="1288.4 292.9 1101.6 333.3 1182.9 217.3 1288.4 292.9" fill="#9a9a9a"/><polygon points="1219.8 424.5 1082.9 601.3 918.1 601.3 918.1 601 1219.8 424.5" fill="#6e6e6e"/><polygon points="1219.8 424.5 918.1 601 861.8 430.2 1219.8 424.5" fill="#414141"/><polygon points="1219.8 424.5 861.8 430.2 1101.6 333.3 1219.8 424.5" fill="#d6d6d6"/><polygon points="1204 126.2 1182.9 217.3 1003.3 168.6 1204 126.2" fill="#d6d6d6"/><polygon points="1182.9 217.3 1101.6 333.3 1003.3 168.6 1182.9 217.3" fill="#6e6e6e"/><polygon points="1003.3 168.6 1101.6 333.3 862.4 285.2 1003.3 168.6" fill="#9a9a9a"/><polygon points="1101.6 333.3 861.8 430.2 668.5 321.7 1101.6 333.3" fill="#9a9a9a"/><polygon points="1101.6 333.3 668.5 321.7 862.4 285.2 1101.6 333.3" fill="#414141"/><polygon points="1003.3 168.6 862.4 285.2 735.8 161.5 1003.3 168.6" fill="#414141"/><polygon points="1003.3 168.6 735.8 161.5 837.9 94.4 1003.3 168.6" fill="#d6d6d6"/><polygon points="918.1 601 918.1 601.3 614.2 601.3 614.2 600.9 678.8 468.7 918.1 601" fill="#6e6e6e"/><polygon points="861.8 430.2 918.1 601 678.8 468.7 861.8 430.2" fill="#9a9a9a"/><polygon points="862.4 285.2 668.5 321.7 735.8 161.5 862.4 285.2" fill="#9a9a9a"/><polygon points="861.8 430.2 678.8 468.7 668.5 321.7 861.8 430.2" fill="#d6d6d6"/><polygon points="735.8 161.5 668.5 321.7 505.9 239.4 735.8 161.5" fill="#eee"/><polygon points="735.8 161.5 505.9 239.4 573.8 105 735.8 161.5" fill="#9a9a9a"/><polygon points="668.5 321.7 678.8 468.7 492.2 479 668.5 321.7" fill="#9a9a9a"/><polygon points="678.8 468.7 614.2 600.9 492.2 479 678.8 468.7" fill="#d6d6d6"/><polygon points="668.5 321.7 492.2 479 333.1 371.2 668.5 321.7" fill="#6e6e6e"/><polygon points="668.5 321.7 333.1 371.2 505.9 239.4 668.5 321.7" fill="#414141"/><polygon points="614.2 600.9 614.2 601.3 230 601.3 492.2 479 614.2 600.9" fill="#d6d6d6"/><polygon points="573.8 105 505.9 239.4 383.7 165.1 573.8 105" fill="#d6d6d6"/><polygon points="505.9 239.4 333.1 371.2 187.3 318.7 505.9 239.4" fill="#d6d6d6"/><polygon points="505.9 239.4 187.3 318.7 383.7 165.1 505.9 239.4" fill="#9a9a9a"/><polygon points="492.2 479 230 601.3 227.9 601.3 154.5 520.2 492.2 479" fill="#414141"/><polygon points="492.2 479 154.5 520.2 333.1 371.2 492.2 479" fill="#9a9a9a"/><polygon points="383.7 165.1 187.3 318.7 129.2 123.9 383.7 165.1" fill="#d6d6d6"/><polygon points="333.1 371.2 154.5 520.2 79.4 400.4 333.1 371.2" fill="#414141"/><polygon points="333.1 371.2 79.4 400.4 187.3 318.7 333.1 371.2" fill="#6e6e6e"/><polygon points="154.5 520.2 227.9 601.3 82.6 601.3 82.6 601 154.5 520.2" fill="#9a9a9a"/><polygon points="129.2 123.9 187.3 318.7 -4.5 264.8 129.2 123.9" fill="#414141"/><polygon points="187.3 318.7 79.4 400.4 -4.5 264.8 187.3 318.7" fill="#eee"/><polygon points="79.4 400.4 154.5 520.2 -4.4 491 79.4 400.4" fill="#9a9a9a"/><polygon points="154.5 520.2 82.6 601 -4.4 491 154.5 520.2" fill="#d6d6d6"/><polygon points="129.2 123.9 -4.5 264.8 -4.7 264.8 -4.7 17.7 129.2 123.9" fill="#9a9a9a"/><polygon points="82.6 601 82.6 601.3 -4.7 601.3 -4.7 264.8 -4.5 264.8 -4.4 491 82.6 601" fill="#9a9a9a"/><polygon points="-4.5 264.8 79.4 400.4 -4.4 491 -4.5 264.8" fill="#6e6e6e"/></g><g id="gradient"><rect x="-6.4" y="188.5" width="2063.2" height="412.93" fill="url(#linear-gradient)"/></g></svg>