<svg id="Layer_1" data-name="Layer 1" xmlns="http://www.w3.org/2000/svg" xmlns:xlink="http://www.w3.org/1999/xlink" viewBox="0 0 360 360"><defs><clipPath id="clip-path"><polygon points="180 4.8 64 47 2.3 153.9 23.7 275.5 118.3 354.8 241.7 354.8 336.3 275.5 357.7 153.9 296 47 180 4.8" fill="none"/></clipPath><clipPath id="clip-path-2"><polygon points="180 4.8 64 47 2.3 153.9 23.7 275.5 118.3 354.8 241.7 354.8 336.3 275.5 357.7 153.9 296 47 180 4.8" fill="#fff" clip-path="url(#clip-path)"/></clipPath></defs><title>vape-a-lot</title><polygon points="180 4.8 64 47 2.3 153.9 23.7 275.5 118.3 354.8 241.7 354.8 336.3 275.5 357.7 153.9 296 47 180 4.8" fill="#fff"/><g clip-path="url(#clip-path-2)"><path d="M176.1,102.9s-47.8.5-83.7,26.1c21.7,12.6,29.6,45.4,29.6,45.4s12.9,4.1,33.3-2.9,25.4-16.1,25.4-16.1A290.2,290.2,0,0,1,176.1,102.9Z"/><path d="M205.9,177.2a24.5,24.5,0,0,0,8.9-12,9.6,9.6,0,0,0,.6-4.6c-1.4-5.9-7.3-11.7-28.9-3.6,23.5,1.9-11.5,25.7-43.3,33.4s-23-10.3-23-10.3-42,22.9-13.5,26.2C106.7,206.3,155.4,215.3,205.9,177.2Z"/><path d="M203.9,87.1c9.2,3.1,2.5,6.4,2.5,6.4l-9.7,6.6c-9.1,6.1-14.9,15.1-15.3,24.5-1,25.8,38.7,15.4,39.9,32.9,1.8,25.2-43.6,43.8-43.6,43.8,28.4-4.9,67.5-12,71.4-38.7,1.5-20.2-15.5-22.3-30.7-28.3-6.8-2.6-10.1-3.6-12.4-9.5-4-9.9,3.1-14.5,14.8-22.5,14.4-9.7,7.7-16.3-3.5-20.1-7.5-2.6-7.8-5.4-7.2-7a3.7,3.7,0,0,1,1.3-1.5c2-1.8,12-10.6,1.2-11.6s-5.4-9.1-5.4-9.1-18.4,6.4-6,9.9c8.3,2.4,6,5.7,3.4,8.1a17.6,17.6,0,0,1-5.2,3.5C194.8,76.7,187.6,81.6,203.9,87.1Z" fill="#93288d"/><path d="M69.5,276.1c-8.6,1.6-13-3.5-14.2-9.7s1.6-14.8,8.4-16.1c4.5-.9,7.4,2.8,8.2,7s-.5,9.1-4.4,9.8a2.7,2.7,0,0,1-2.6-.6,16.5,16.5,0,0,0,2-10.6c-.4-1.8-1.3-3.3-2.7-3.7-3.1,1.4-4.6,7.9-3.6,13.6s3.7,8.5,8.8,8.2c4.6-2,6.8-9.1,5.9-14.1-2.1-10.6-8.9-13.9-10.7-23.6-1.3-6.6,2.4-11.1,6.4-11.9,5.5-1,8.7,1.8,10.1,5.4-.3-1-.5-2.2-.8-3.4-.8-4.3-1.1-8.7,2-9.3a3.8,3.8,0,0,1,4,2.1c-3.8,3-4,7.8-4.3,12.3a32,32,0,0,1-.6,4.6c-.5,2.7-2,4.6-3.7,4.9a3,3,0,0,1-2.4-.5,13.1,13.1,0,0,0,1.6-8.8c-.5-2.8-2-5.1-4.3-5.9s-4.1,4-3.3,8.4c1.7,8.9,8.7,13.2,10.8,23.9C81.6,266,78.2,274.4,69.5,276.1Z"/><path d="M82.9,261.8c-.9-4.8,3.8-18.8,3.5-22.2a5.6,5.6,0,0,1-2.1.9c-.9.2-1.2-.1-1.3-.5a1.1,1.1,0,0,1,0-.8c1.5-.2,2.8-.8,4.1-1s3.3.3,3.6,2c.7,3.5-3.3,16.3-3.3,21.2,2.3-2,6.9-12.6,8.9-22.3.5-.2,1.1-.1,1.2.4s-1.6,9-2.9,13.1c-2.1,6.3-5.1,11-7.4,11.5S83.2,263.5,82.9,261.8Zm10.5-33.9c.4,1.8-1.8,4.3-3.4,6.1l-1.7,1.9c-.4.1-.7-.1-.9-.7a5.6,5.6,0,0,1,.3-1.5A26.2,26.2,0,0,0,89,227C91.3,226.6,93.1,226.3,93.4,227.9Z"/><path d="M95.5,258.4c-.4-2.4,4.4-15,4.1-16.5s-.6-.9-1.3-1.1-2.6-1.8-3-3.9c-1-5.2.6-7.6,2.5-8a2.6,2.6,0,0,1,2.6,1,60,60,0,0,0-2.7,7.4,5.7,5.7,0,0,0-.1,1.3c.1.3.3.6.6.6,3.9.5,5,.3,5.5,2.5s-.9,6-1.9,10.1a35.7,35.7,0,0,0-1.4,7.3c1.8-1.4,3-4.2,3.9-6.7.4-.2.7-.1.8.4.4,2.1-2.4,8.3-5.3,8.9A4,4,0,0,1,95.5,258.4Z"/><path d="M124.1,260.5c-.7-3.6.7-11.9,2.1-20.1s2.8-16.3,2.1-20-1.2-3.6-2.1-4.1c-9.1,2.7-12.4,18.4-10.8,26.6.4,2.6,1.4,4.4,2.9,4.7,2.2-4.3,3-13.3,2-18.3a7.5,7.5,0,0,0-1-2.8,2.7,2.7,0,0,1,1.5-1c1.7-.3,3.5,1.2,4.1,4.3,1.1,6.2-1.8,19-7.5,20-3.7.8-6-2.1-6.7-6.1-2.3-11.7,3-27.4,12.6-29.2a8.4,8.4,0,0,1,9.9,6.6c.8,4-1.1,13.9-2.7,23-1.3,7.1-2.4,13.6-1.9,16.4a2.7,2.7,0,0,0,1.1,1.8c3-3.9,5-16.1,7.2-30,2.3-17,5-21.4,9.3-22.3,2.4-.4,3.5.6,3.6,1.5a.9.9,0,0,1-.1.7,4,4,0,0,0-1.6-.1c-4,.8-5.5,10.3-6.9,19.6-4,21.9-6.4,31.8-12,32.9C126.8,265,124.6,263.2,124.1,260.5Z"/><path d="M152.2,248.6c-.2-1.2.4-4,.8-7-1.7,5.8-3.1,10.5-5.4,10.9a4.3,4.3,0,0,1-4.7-3.1,32.7,32.7,0,0,1,.6-11c1.1-6.2,2.8-11.9,6.1-12.6a4.5,4.5,0,0,1,4.9,3.5c.2-1.4.5-2.8.7-4,2-.5,3.6-.6,3.9,1.2s-.4,5.6-1.1,10.2-2.2,9.9-2.3,12.2c2.9-1.9,6.6-12.8,8.3-20.8.3-.1.4,0,.4.3.5,2.4-4,21.7-8.8,22.6A3.3,3.3,0,0,1,152.2,248.6Zm.1-10c.7-2.8,1.7-5.9,1.3-7.7s-1.2-2.5-2.1-2.3-1.8,2.4-3.5,11.2c-1,4.6-1.1,9.2-.6,10.4C149,249.1,150.8,244.1,152.3,238.6Z"/><path d="M158.7,264.3c-.6-3.5,2.7-22,3.5-26.9s3.1-17,3.3-19.6c2.4-.4,3.3-.3,3.6,1s-1.4,9.1-1.9,12.7c1.6-6.4,3.5-9.7,5.4-10.1a4.5,4.5,0,0,1,4.7,3.3c1,5.2-.2,14.7-3,19.9,3.7-3.8,7.2-12.8,8.7-20.1.3-.1.4,0,.4.2.5,2.5-3.7,21.7-12.6,23.4-2.1.4-3.8-.5-5.3-2.5-1,5.4-2,11.9-3.2,19.8C160.2,265.9,159,265.5,158.7,264.3Zm13.5-29.9c.8-4.6,1.1-9.3.6-10.5-2.4.8-4.6,6.6-7,20,1.3,1.4,2.1,1.8,2.8,1.6S170.7,243.2,172.2,234.4Z"/><path d="M188.3,244.7c-3.8.8-7.4-.9-8-4.2-1-5,.3-13.6,3.3-18.6a6.4,6.4,0,0,1,4.6-3.5c2.5-.5,5.5.2,6.1,3.8s-2.3,14.9-8.3,16.1h-1.4c.1.5.1,1,.2,1.4a3.1,3.1,0,0,0,2.3,2.7c3.2-1,5.4-4.3,6.5-7.4.4-.1.7-.1.8.4C194.8,237.7,191.6,244.1,188.3,244.7Zm-3.6-7.8c4.2-1.5,6.6-12.3,5.9-15.9-.1-.5-.2-.9-.5-1C187.8,220.5,184.9,230.7,184.7,236.9Z"/><path d="M207.4,225.7c.2,1.1,0,2.4-2.1,2.8s-5.6.8-8.1,1.2l-1.4.3-.2-.6c-.2-1.1.3-2.3,2.8-2.7l6-1,2.8-.7A1.9,1.9,0,0,1,207.4,225.7Z"/><path d="M238.4,238.7a25.1,25.1,0,0,1,0-7.3l-5.2.7c-2.6,11.2-5.6,13.7-11.6,14.9s-9.1-3.1-10.2-8.7c-1.6-8.4,1.8-19.5,9-20.9,3.8-.7,6.3,1.9,6.9,5.4a11.9,11.9,0,0,1-3.1,10.5,21.3,21.3,0,0,1,5.4-2.8c.4-1.5.7-3,1-4.6,4-21.9,7.4-33.7,13-34.8a4.4,4.4,0,0,1,4.8,3.7c.9,5.1-2.7,20.3-4.3,32.1l3.3-1.1a.8.8,0,0,1,.2.5c.2.9-1.1,2.9-3.9,4a31.9,31.9,0,0,0-.1,8.7c.3,1.7,1.1,2.7,2.8,2.4a4.2,4.2,0,0,0,2.7-2.4c.4,0,.7.1.8.6s-1,3.7-4,4.2C241.3,244.7,239.1,242.5,238.4,238.7Zm-9.5-5.8a32.8,32.8,0,0,0-7.1,3l-1,.4a.9.9,0,0,1-1.1-.5c1.8-1.7,4.4-9.2,3.5-13.8a3.5,3.5,0,0,0-2.1-2.9c-4,2.2-6.1,11.7-4.8,18.6.8,3.9,2.6,6.9,5.8,7.2C224.9,243.6,227.3,239,228.9,232.9Zm4.9-3.7a43.1,43.1,0,0,1,4.9-1.1c1.8-13.9,7.1-33.5,4.1-34.6-3.4,3.4-6.1,17.8-8.3,31.8C234.2,226.7,234,227.9,233.8,229.2Z"/><path d="M262.7,215.2c.2,1.1-.1,2.4-2.2,2.8l-8,1.1-1.4.4a1.9,1.9,0,0,1-.2-.7c-.2-1.1.3-2.2,2.7-2.7l6.1-1,2.7-.7Z"/><path d="M291.4,234c-3,.5-5.6-1.3-8.3-3.2a10,10,0,0,1-7.5,5.8c-4.7.9-7.5-1.5-8.1-4.6s1.1-6.1,5.1-6.9c1.8-.3,4.3.2,7,1,.5-1.9,1-4.2,1.5-7.1-7.2.5-13.1-2.6-14.5-9.7s1.5-18.6,8.3-19.9c3.4-.7,5.5,1.2,6,4.1,1.5,7.8-2.5,15-5,15.5a1.1,1.1,0,0,1-1.2-.6c1.5-3.1,3.2-12,2.5-15.9-.2-1-.6-1.6-1.1-1.7-3.2,1.9-5.9,11.4-4.7,17.7s3.7,8.4,10.1,8.5c1.7-8.9,3.8-20.9,5.9-27.4,1-2.8,2.8-7.3,5.6-7.9a6.6,6.6,0,0,1,7.6,5.3c1.8,9.2-1.8,26.6-13.9,31a90.6,90.6,0,0,1-2.4,9.9q4.8,1.8,7.8,1.2c2.1-.4,3.4-2,3.9-4.5.6-.1,1,.3,1.2,1.3a7,7,0,0,1-5.8,8.1Zm-16,.8c1.8-1.3,2.8-3.4,3.7-6.4a12.8,12.8,0,0,0-5.5-1.4c-1.4.9-1.8,2.6-1.5,4.4S273.7,234.8,275.4,234.8Zm11.7-19.2c8.7-5.2,10.2-22.3,8.9-29.1-.3-1.6-.7-2.6-1.3-2.8-2.5,1.6-5.1,17.4-6.6,26.6C287.8,212.1,287.5,213.9,287.1,215.6Z"/><path d="M307.3,221.9c-3.1.6-6.2-1-7-5s.1-11,2.3-15.9c.4-1,.9-2,1.7-2.2h.7a5,5,0,0,1,4.1-3.5,5.3,5.3,0,0,1,6.4,4.1c.7,3.3-.3,9.9-2.2,15.3,3.4-2.6,5.6-10,7.2-18.6.5-.2,1-.2,1.2.6.5,2.8-1.6,18.1-8.1,19.3h-.8a5.4,5.4,0,0,0-.5,1.1C311,220.2,309,221.6,307.3,221.9Zm1.8-6.9a14.1,14.1,0,0,1-3.8-7.6,26.7,26.7,0,0,0-.4,9.6c.3,1.7,1,2.9,2.1,3A21.1,21.1,0,0,0,309.1,215Zm.5-1.9c1.1-4.4,1.8-9.9,1.1-13.5a2.6,2.6,0,0,0-2.3-2.5c-1.6,1.4-2.3,6.2-1.5,10.4A11.3,11.3,0,0,0,309.6,213.1Z"/><path d="M317.4,216c-.5-2.7,1.2-12.7,2.8-20.4l-2.6.2-.2-.4a.9.9,0,0,1,.7-1.1l2.5-.5c.6-3,1.1-5.5,1.5-6.7,2.7-.6,3.8.1,4,1.2a16.9,16.9,0,0,1-.8,4.6l3.4-.6a.9.9,0,0,1,.3.5c.2.8-1.1,1.4-4,2-.9,4.4-1.9,9.8-3,16.7a13.5,13.5,0,0,0-.1,3.4,2.3,2.3,0,0,0,.9,1.7c1.8-1.4,3.1-4.2,4-6.8.3-.1.7-.1.8.4.4,2.1-2.4,8.3-5.3,8.9A4.3,4.3,0,0,1,317.4,216Z"/></g></svg>