<svg id="Layer_1" data-name="Layer 1" xmlns="http://www.w3.org/2000/svg" viewBox="0 0 344 338.8"><title>vimeo</title><path d="M331.2,87.4,239.7,10.6H120.3L28.8,87.4,8,205.1,67.7,308.5,180,349.4l112.3-40.9L352,205.1Zm-58.7,57.1c-2.3,7.4-4.5,14.8-8,21.8a294.2,294.2,0,0,1-57.3,77.4c-10.1,9.9-21.4,17.8-35.6,20.7h-7.7c-5.1-2.4-10-5.2-13.6-10-6.3-8.6-10.3-18.1-13.1-28.3q-7-26.2-14.3-52.3c-2-7.2-4.5-14.3-8.5-20.6s-7.7-7.8-14.8-3.3c-9.8,6.3-7.3,7.2-15.6-3.1-1.8-2.3-1.8-4.2.5-6.2l9.9-8.9c10.9-9.4,20.9-19.9,33.6-27.1s27.4-3.1,33.6,11.6a72.9,72.9,0,0,1,4.4,16c2.2,12.8,4.2,25.6,6.6,38.4,1.9,9.5,3.8,19.1,8.4,27.7,3.7,6.8,7.2,7.3,12.5,1.8,9-9.2,15.2-20.2,20.6-31.8a33,33,0,0,0,3.2-16.1c-.4-6.7-3.7-10.2-10.3-10.6a33.9,33.9,0,0,0-12.7,1.6c-2.3.8-3.6.4-2.7-2.3,5.7-16.8,14.2-31.3,31.4-38.6,23.5-10.1,41.5-2.6,49.5,20.3A45,45,0,0,1,272.5,144.5Z" transform="translate(-8 -10.6)" fill="#fff"/></svg>